# 3ds Max Wavefront OBJ Exporter v0.97b - (c)2007 guruware
# File Created: 13.11.2019 17:42:42

mtllib Arrow2.mtl

#
# object Arrow2
#

v  -2.7997 4.5330 0.5023
v  -2.9293 4.5324 0.4674
v  -3.0575 4.4772 0.4281
v  -3.1411 4.3773 0.3969
v  -3.1856 4.2427 0.3731
v  -3.1767 4.1260 0.3653
v  -0.3150 -4.3705 0.4455
v  -0.2499 -4.4524 0.4512
v  -0.1477 -4.5234 0.4557
v  -0.0428 -1.5426 0.7123
v  -1.2713 2.4472 0.7309
v  -1.3280 2.4527 0.7161
v  -1.3693 2.4434 0.7042
v  -1.3985 2.4188 0.6942
v  -1.4052 2.3672 0.6879
v  -1.3920 2.3114 0.6866
v  -0.1082 -1.4987 0.6985
v  -0.0788 -1.5300 0.7037
v  0.1477 -4.5234 0.4557
v  0.0000 -4.5330 0.4622
v  0.0000 -1.5458 0.7235
v  0.0428 -1.5426 0.7123
v  -0.0091 3.4201 1.1555
v  2.7997 4.5330 0.5023
v  1.2713 2.4472 0.7309
v  -0.0094 2.1232 1.0420
v  2.9293 4.5324 0.4674
v  1.3280 2.4527 0.7161
v  3.0575 4.4772 0.4281
v  1.3693 2.4434 0.7042
v  3.1411 4.3773 0.3969
v  1.3985 2.4188 0.6942
v  3.1856 4.2427 0.3731
v  1.4052 2.3672 0.6879
v  3.1767 4.1260 0.3653
v  1.3920 2.3114 0.6866
v  0.3150 -4.3705 0.4455
v  0.1082 -1.4987 0.6985
v  0.2499 -4.4524 0.4512
v  0.0788 -1.5300 0.7037
v  0.0091 3.4201 1.1555
v  0.0094 2.1232 1.0420
v  0.0000 3.4183 1.1566
v  0.0000 2.1220 1.0431
v  -0.1477 -4.5234 -0.4557
v  0.0000 -4.5330 -0.4622
v  0.0000 -1.5458 -0.7235
v  -0.0428 -1.5426 -0.7123
v  -0.0091 3.4201 -1.1555
v  -2.7997 4.5330 -0.5023
v  -1.2713 2.4472 -0.7309
v  -0.0094 2.1232 -1.0420
v  -2.9293 4.5324 -0.4674
v  -1.3280 2.4527 -0.7161
v  -3.0575 4.4772 -0.4281
v  -1.3693 2.4434 -0.7042
v  -3.1411 4.3773 -0.3969
v  -1.3985 2.4188 -0.6942
v  -3.1856 4.2427 -0.3731
v  -1.4052 2.3672 -0.6879
v  -3.1767 4.1260 -0.3653
v  -1.3920 2.3114 -0.6866
v  -0.3150 -4.3705 -0.4455
v  -0.1082 -1.4987 -0.6985
v  -0.2499 -4.4524 -0.4512
v  -0.0788 -1.5300 -0.7037
v  0.1477 -4.5234 -0.4557
v  0.0428 -1.5426 -0.7123
v  0.0091 3.4201 -1.1555
v  0.0094 2.1232 -1.0420
v  1.2713 2.4472 -0.7309
v  2.7997 4.5330 -0.5023
v  1.3280 2.4527 -0.7161
v  2.9293 4.5324 -0.4674
v  1.3693 2.4434 -0.7042
v  3.0575 4.4772 -0.4281
v  1.3985 2.4188 -0.6942
v  3.1411 4.3773 -0.3969
v  1.4052 2.3672 -0.6879
v  3.1856 4.2427 -0.3731
v  1.3920 2.3114 -0.6866
v  3.1767 4.1260 -0.3653
v  0.1082 -1.4987 -0.6985
v  0.3150 -4.3705 -0.4455
v  0.0788 -1.5300 -0.7037
v  0.2499 -4.4524 -0.4512
v  0.0000 3.4183 -1.1566
v  0.0000 2.1220 -1.0431
# 88 vertices

vn -0.0702 -0.0850 0.9939
vn 0.0000 -0.0872 0.9962
vn 0.0000 -0.0817 0.9967
vn -0.2564 -0.0771 0.9635
vn -0.2064 -0.0853 0.9747
vn -0.2588 -0.0842 0.9623
vn -0.2588 -0.0842 0.9623
vn -0.1963 -0.0854 0.9768
vn -0.2588 -0.0842 0.9623
vn -0.2588 -0.0842 0.9623
vn -0.2588 -0.0842 0.9623
vn -0.2588 -0.0842 0.9623
vn -0.2588 -0.0842 0.9623
vn -0.2588 -0.0842 0.9623
vn -0.2588 -0.0842 0.9623
vn -0.2588 -0.0842 0.9623
vn -0.2588 -0.0842 0.9623
vn -0.2588 -0.0842 0.9623
vn -0.2588 -0.0842 0.9623
vn -0.2588 -0.0842 0.9623
vn -0.2588 -0.0842 0.9623
vn -0.2588 -0.0842 0.9622
vn -0.2588 -0.0842 0.9623
vn -0.2588 -0.0842 0.9623
vn -0.2588 -0.0842 0.9622
vn -0.2571 -0.0832 0.9628
vn -0.2588 -0.0842 0.9623
vn -0.2588 -0.0842 0.9623
vn -0.2571 -0.0832 0.9628
vn -0.1877 -0.0734 0.9795
vn -0.2455 -0.0757 0.9664
vn -0.2588 -0.0842 0.9623
vn -0.1877 -0.0734 0.9795
vn -0.1216 -0.0799 0.9894
vn -0.2515 -0.0749 0.9649
vn -0.2455 -0.0757 0.9664
vn -0.1216 -0.0799 0.9894
vn -0.0702 -0.0850 0.9939
vn -0.2564 -0.0771 0.9635
vn -0.2515 -0.0749 0.9649
vn 0.0702 -0.0850 0.9939
vn 0.2564 -0.0770 0.9635
vn 0.0000 -0.0817 0.9967
vn 0.0000 -0.0872 0.9962
vn 0.2064 -0.0853 0.9747
vn 0.1961 -0.0858 0.9768
vn 0.2588 -0.0842 0.9623
vn 0.2588 -0.0842 0.9623
vn 0.2588 -0.0842 0.9623
vn 0.2588 -0.0842 0.9623
vn 0.2588 -0.0842 0.9623
vn 0.2588 -0.0842 0.9623
vn 0.2588 -0.0842 0.9623
vn 0.2588 -0.0842 0.9623
vn 0.2588 -0.0842 0.9623
vn 0.2588 -0.0842 0.9623
vn 0.2588 -0.0842 0.9623
vn 0.2588 -0.0842 0.9623
vn 0.2588 -0.0842 0.9623
vn 0.2588 -0.0842 0.9623
vn 0.2588 -0.0842 0.9623
vn 0.2588 -0.0842 0.9623
vn 0.2588 -0.0842 0.9623
vn 0.2588 -0.0842 0.9623
vn 0.2588 -0.0842 0.9623
vn 0.2588 -0.0842 0.9623
vn 0.2588 -0.0842 0.9623
vn 0.2571 -0.0832 0.9628
vn 0.2571 -0.0832 0.9628
vn 0.2588 -0.0842 0.9623
vn 0.2455 -0.0757 0.9664
vn 0.1877 -0.0734 0.9795
vn 0.1877 -0.0734 0.9795
vn 0.2455 -0.0757 0.9664
vn 0.2515 -0.0749 0.9649
vn 0.1216 -0.0799 0.9894
vn 0.1216 -0.0799 0.9894
vn 0.2515 -0.0749 0.9649
vn 0.2564 -0.0770 0.9635
vn 0.0702 -0.0850 0.9939
vn 0.1961 -0.0858 0.9768
vn 0.2564 -0.0770 0.9635
vn 0.2515 -0.0749 0.9649
vn 0.2588 -0.0842 0.9623
vn -0.6809 -0.7324 -0.0000
vn -0.6809 -0.7324 -0.0000
vn -0.3230 -0.9464 -0.0000
vn -0.3230 -0.9464 -0.0000
vn -0.6809 -0.7324 -0.0000
vn -0.8768 -0.4808 -0.0000
vn -0.8768 -0.4808 -0.0000
vn -0.6809 -0.7324 -0.0000
vn -0.1700 0.9855 -0.0000
vn 0.2156 0.9765 -0.0000
vn 0.2156 0.9765 -0.0000
vn -0.1700 0.9855 -0.0000
vn -0.8619 0.5072 -0.0000
vn -0.5664 0.8241 -0.0000
vn -0.5664 0.8241 -0.0000
vn -0.8619 0.5072 -0.0000
vn -0.9804 -0.1968 -0.0000
vn -0.9908 0.1356 -0.0000
vn -0.9908 0.1356 -0.0000
vn -0.9804 -0.1968 -0.0000
vn 0.9908 0.1356 -0.0000
vn 0.9908 0.1356 -0.0000
vn 0.8619 0.5072 -0.0000
vn 0.8619 0.5072 -0.0000
vn -0.2588 -0.0842 0.9623
vn -0.2588 -0.0842 0.9623
vn -0.2588 -0.0842 0.9623
vn -0.2588 -0.0842 0.9623
vn -0.2588 -0.0842 0.9623
vn -0.2588 -0.0842 0.9623
vn -0.2588 -0.0842 0.9623
vn -0.2588 -0.0842 0.9623
vn 0.0003 -0.0874 0.9962
vn 0.1961 -0.0858 0.9768
vn 0.2064 -0.0853 0.9747
vn -0.0000 -0.0872 0.9962
vn 0.2747 0.9615 -0.0000
vn 0.2156 0.9765 -0.0000
vn 0.2156 0.9765 -0.0000
vn 0.2747 0.9615 -0.0000
vn -0.1963 -0.0854 0.9768
vn 0.0003 -0.0874 0.9962
vn -0.0000 -0.0872 0.9962
vn -0.2064 -0.0853 0.9747
vn -0.1963 -0.0854 0.9768
vn -0.2564 -0.0771 0.9635
vn 0.0000 -0.0817 0.9967
vn 0.0003 -0.0874 0.9962
vn 0.0003 -0.0874 0.9962
vn 0.0000 -0.0817 0.9967
vn 0.2564 -0.0770 0.9635
vn 0.1961 -0.0858 0.9768
vn -0.1963 -0.0854 0.9768
vn -0.2588 -0.0842 0.9623
vn -0.2515 -0.0749 0.9649
vn -0.2564 -0.0771 0.9635
vn -0.2588 -0.0842 0.9623
vn -0.2455 -0.0757 0.9664
vn -0.2515 -0.0749 0.9649
vn -0.2588 -0.0842 0.9623
vn 0.2515 -0.0749 0.9649
vn 0.2455 -0.0757 0.9664
vn 0.2588 -0.0842 0.9623
vn 0.2588 -0.0842 0.9623
vn 0.2588 -0.0842 0.9623
vn 0.2588 -0.0842 0.9623
vn 0.2588 -0.0842 0.9623
vn 0.2588 -0.0842 0.9623
vn 0.2588 -0.0842 0.9623
vn 0.2588 -0.0842 0.9623
vn 0.2588 -0.0842 0.9623
vn 0.2588 -0.0842 0.9623
vn -0.0702 -0.0850 -0.9939
vn -0.2564 -0.0771 -0.9635
vn 0.0000 -0.0817 -0.9967
vn 0.0000 -0.0872 -0.9962
vn -0.2064 -0.0853 -0.9747
vn -0.1963 -0.0854 -0.9768
vn -0.2588 -0.0842 -0.9622
vn -0.2588 -0.0842 -0.9623
vn -0.2588 -0.0842 -0.9622
vn -0.2588 -0.0842 -0.9623
vn -0.2588 -0.0842 -0.9623
vn -0.2588 -0.0842 -0.9623
vn -0.2588 -0.0842 -0.9623
vn -0.2588 -0.0842 -0.9623
vn -0.2588 -0.0842 -0.9623
vn -0.2588 -0.0842 -0.9623
vn -0.2588 -0.0842 -0.9623
vn -0.2588 -0.0842 -0.9623
vn -0.2588 -0.0842 -0.9623
vn -0.2588 -0.0842 -0.9623
vn -0.2588 -0.0842 -0.9623
vn -0.2588 -0.0842 -0.9623
vn -0.2588 -0.0842 -0.9623
vn -0.2588 -0.0842 -0.9622
vn -0.2588 -0.0842 -0.9622
vn -0.2588 -0.0842 -0.9623
vn -0.2588 -0.0842 -0.9623
vn -0.2571 -0.0832 -0.9628
vn -0.2571 -0.0832 -0.9628
vn -0.2588 -0.0842 -0.9623
vn -0.2455 -0.0757 -0.9664
vn -0.1877 -0.0734 -0.9795
vn -0.1877 -0.0734 -0.9795
vn -0.2455 -0.0757 -0.9664
vn -0.2515 -0.0749 -0.9649
vn -0.1216 -0.0799 -0.9894
vn -0.1216 -0.0799 -0.9894
vn -0.2515 -0.0749 -0.9649
vn -0.2564 -0.0771 -0.9635
vn -0.0702 -0.0850 -0.9939
vn 0.0702 -0.0850 -0.9939
vn 0.0000 -0.0872 -0.9962
vn 0.0000 -0.0817 -0.9967
vn 0.2564 -0.0770 -0.9635
vn 0.2064 -0.0853 -0.9747
vn 0.2588 -0.0842 -0.9623
vn 0.2588 -0.0842 -0.9622
vn 0.1961 -0.0858 -0.9768
vn 0.2588 -0.0842 -0.9622
vn 0.2588 -0.0842 -0.9623
vn 0.2588 -0.0842 -0.9623
vn 0.2588 -0.0842 -0.9623
vn 0.2588 -0.0842 -0.9623
vn 0.2588 -0.0842 -0.9623
vn 0.2588 -0.0842 -0.9623
vn 0.2588 -0.0842 -0.9623
vn 0.2588 -0.0842 -0.9623
vn 0.2588 -0.0842 -0.9623
vn 0.2588 -0.0842 -0.9623
vn 0.2588 -0.0842 -0.9623
vn 0.2588 -0.0842 -0.9623
vn 0.2588 -0.0842 -0.9623
vn 0.2588 -0.0842 -0.9623
vn 0.2588 -0.0842 -0.9623
vn 0.2588 -0.0842 -0.9623
vn 0.2571 -0.0832 -0.9628
vn 0.2588 -0.0842 -0.9623
vn 0.2588 -0.0842 -0.9623
vn 0.2571 -0.0832 -0.9628
vn 0.1877 -0.0734 -0.9795
vn 0.2455 -0.0757 -0.9664
vn 0.2588 -0.0842 -0.9623
vn 0.1877 -0.0734 -0.9795
vn 0.1216 -0.0799 -0.9894
vn 0.2515 -0.0749 -0.9649
vn 0.2455 -0.0757 -0.9664
vn 0.1216 -0.0799 -0.9894
vn 0.0702 -0.0850 -0.9939
vn 0.2564 -0.0770 -0.9635
vn 0.2515 -0.0749 -0.9649
vn 0.1961 -0.0858 -0.9768
vn 0.2588 -0.0842 -0.9622
vn 0.2515 -0.0749 -0.9649
vn 0.2564 -0.0770 -0.9635
vn -0.0000 -1.0000 -0.0000
vn -0.3230 -0.9464 -0.0000
vn -0.3230 -0.9464 -0.0000
vn 0.0000 -1.0000 -0.0000
vn -0.8768 -0.4808 -0.0000
vn -0.8768 -0.4808 -0.0000
vn -0.9804 -0.1968 -0.0000
vn -0.9804 -0.1968 -0.0000
vn -0.5664 0.8241 -0.0000
vn -0.5664 0.8241 -0.0000
vn -0.1700 0.9855 -0.0000
vn -0.1700 0.9855 -0.0000
vn -0.9908 0.1356 -0.0000
vn -0.9908 0.1356 -0.0000
vn -0.8619 0.5072 -0.0000
vn -0.8619 0.5072 -0.0000
vn 0.3230 -0.9464 -0.0000
vn 0.3230 -0.9464 -0.0000
vn -0.0000 -1.0000 -0.0000
vn 0.0000 -1.0000 -0.0000
vn -0.2156 0.9765 -0.0000
vn -0.2156 0.9765 -0.0000
vn 0.1700 0.9854 -0.0000
vn 0.1700 0.9854 -0.0000
vn 0.1700 0.9854 -0.0000
vn 0.1700 0.9854 -0.0000
vn 0.5664 0.8241 -0.0000
vn 0.5664 0.8241 -0.0000
vn 0.5664 0.8241 -0.0000
vn 0.8619 0.5072 -0.0000
vn 0.8619 0.5072 -0.0000
vn 0.5664 0.8241 -0.0000
vn 0.9908 0.1356 -0.0000
vn 0.9908 0.1356 -0.0000
vn 0.9804 -0.1968 -0.0000
vn 0.9804 -0.1968 -0.0000
vn 0.9804 -0.1968 -0.0000
vn 0.9804 -0.1968 -0.0000
vn 0.8768 -0.4808 -0.0000
vn 0.8768 -0.4808 -0.0000
vn 0.8768 -0.4808 -0.0000
vn 0.8768 -0.4808 -0.0000
vn 0.6809 -0.7324 -0.0000
vn 0.6809 -0.7324 -0.0000
vn 0.6809 -0.7324 -0.0000
vn 0.6809 -0.7324 -0.0000
vn 0.3230 -0.9464 -0.0000
vn 0.3230 -0.9464 -0.0000
vn -0.2588 -0.0842 -0.9623
vn -0.2588 -0.0842 -0.9623
vn -0.2588 -0.0842 -0.9623
vn -0.2588 -0.0842 -0.9623
vn -0.2588 -0.0842 -0.9623
vn -0.2588 -0.0842 -0.9622
vn -0.2588 -0.0842 -0.9623
vn -0.2588 -0.0842 -0.9623
vn 0.0003 -0.0874 -0.9962
vn -0.0000 -0.0872 -0.9962
vn 0.2064 -0.0853 -0.9747
vn 0.1961 -0.0858 -0.9768
vn -0.1963 -0.0854 -0.9768
vn -0.2064 -0.0853 -0.9747
vn -0.0000 -0.0872 -0.9962
vn 0.0003 -0.0874 -0.9962
vn -0.1963 -0.0854 -0.9768
vn 0.0003 -0.0874 -0.9962
vn 0.0000 -0.0817 -0.9967
vn -0.2564 -0.0771 -0.9635
vn 0.0003 -0.0874 -0.9962
vn 0.1961 -0.0858 -0.9768
vn 0.2564 -0.0770 -0.9635
vn 0.0000 -0.0817 -0.9967
vn -0.1963 -0.0854 -0.9768
vn -0.2564 -0.0771 -0.9635
vn -0.2515 -0.0749 -0.9649
vn -0.2588 -0.0842 -0.9622
vn -0.2588 -0.0842 -0.9623
vn -0.2588 -0.0842 -0.9622
vn -0.2515 -0.0749 -0.9649
vn -0.2455 -0.0757 -0.9664
vn 0.2515 -0.0749 -0.9649
vn 0.2588 -0.0842 -0.9622
vn 0.2588 -0.0842 -0.9623
vn 0.2455 -0.0757 -0.9664
vn 0.2588 -0.0842 -0.9623
vn 0.2588 -0.0842 -0.9622
vn 0.2588 -0.0842 -0.9623
vn 0.2588 -0.0842 -0.9623
vn 0.2588 -0.0842 -0.9623
vn 0.2588 -0.0842 -0.9623
vn 0.2588 -0.0842 -0.9623
vn 0.2588 -0.0842 -0.9623
vn -0.2747 0.9615 -0.0000
vn -0.2747 0.9615 -0.0000
vn -0.0000 1.0000 -0.0000
vn 0.0000 1.0000 -0.0000
vn 0.0000 1.0000 -0.0000
vn -0.0000 1.0000 -0.0000
vn 0.2747 0.9615 -0.0000
vn 0.2747 0.9615 -0.0000
vn -0.2747 0.9615 -0.0000
vn -0.2156 0.9765 -0.0000
vn -0.2156 0.9765 -0.0000
vn -0.2747 0.9615 -0.0000
# 344 vertex normals

vt 0.0682 0.4558 0.0000
vt 0.0654 0.4441 0.0000
vt 0.1556 0.4470 0.0000
vt 0.6423 0.9963 0.0000
vt 0.6290 0.9971 0.0000
vt 0.6290 0.7287 0.0000
vt 0.6328 0.7284 0.0000
vt 0.0206 0.0044 0.0000
vt 0.0298 0.0048 0.0000
vt 0.6298 0.2824 0.0000
vt 0.8806 0.1824 0.0000
vt 0.7432 0.3698 0.0000
vt 0.6298 0.3990 0.0000
vt 0.8922 0.1825 0.0000
vt 0.7483 0.3694 0.0000
vt 0.9038 0.1874 0.0000
vt 0.7521 0.3702 0.0000
vt 0.9113 0.1964 0.0000
vt 0.0298 0.0859 0.0000
vt 0.0206 0.0863 0.0000
vt 0.7547 0.3724 0.0000
vt 0.9153 0.2085 0.0000
vt 0.1521 0.4585 0.0000
vt 0.0148 0.1916 0.0000
vt 0.7553 0.3770 0.0000
vt 0.9145 0.2190 0.0000
vt 0.2223 0.1982 0.0000
vt 0.7541 0.3821 0.0000
vt 0.1482 0.4699 0.0000
vt 0.6573 0.9825 0.0000
vt 0.6387 0.7244 0.0000
vt 0.6515 0.9899 0.0000
vt 0.6361 0.7273 0.0000
vt 0.6157 0.9963 0.0000
vt 0.6252 0.7284 0.0000
vt 0.6282 0.2824 0.0000
vt 0.6282 0.3990 0.0000
vt 0.5148 0.3698 0.0000
vt 0.0074 0.0869 0.0000
vt 0.3774 0.1824 0.0000
vt 0.0713 0.4675 0.0000
vt 0.5097 0.3694 0.0000
vt 0.8428 0.7357 0.0000
vt 0.3658 0.1825 0.0000
vt 0.0074 0.0038 0.0000
vt 0.0206 0.0937 0.0000
vt 0.3023 0.1824 0.0000
vt 0.2928 0.4503 0.0000
vt 0.7526 0.7328 0.0000
vt 0.7561 0.7213 0.0000
vt 0.2890 0.4500 0.0000
vt 0.2890 0.1816 0.0000
vt 0.8401 0.7240 0.0000
vt 0.2898 0.8963 0.0000
vt 0.7600 0.7099 0.0000
vt 0.2898 0.7797 0.0000
vt 0.4032 0.8088 0.0000
vt 0.5406 0.9963 0.0000
vt 0.4083 0.8093 0.0000
vt 0.5522 0.9962 0.0000
vt 0.4120 0.8085 0.0000
vt 0.5638 0.9913 0.0000
vt 0.4147 0.8063 0.0000
vt 0.5713 0.9823 0.0000
vt 0.0206 0.1756 0.0000
vt 0.4153 0.8016 0.0000
vt 0.0298 0.0941 0.0000
vt 0.5753 0.9702 0.0000
vt 0.8369 0.7124 0.0000
vt 0.4141 0.7966 0.0000
vt 0.5745 0.9597 0.0000
vt 0.0147 0.1907 0.0000
vt 0.2987 0.4542 0.0000
vt 0.0148 0.1899 0.0000
vt 0.3173 0.1962 0.0000
vt 0.2224 0.1966 0.0000
vt 0.2961 0.4514 0.0000
vt 0.3115 0.1888 0.0000
vt 0.2757 0.1824 0.0000
vt 0.2851 0.4503 0.0000
vt 0.2882 0.8963 0.0000
vt 0.0374 0.9963 0.0000
vt 0.1748 0.8088 0.0000
vt 0.2881 0.7797 0.0000
vt 0.0257 0.9962 0.0000
vt 0.0298 0.1752 0.0000
vt 0.2225 0.1974 0.0000
vt 0.1697 0.8093 0.0000
vt 0.8233 0.1703 0.0000
vt 0.8112 0.1682 0.0000
vt 0.8112 0.1011 0.0000
vt 0.8233 0.0990 0.0000
vt 0.8323 0.0962 0.0000
vt 0.8323 0.1731 0.0000
vt 0.8007 0.1675 0.0000
vt 0.8007 0.1018 0.0000
vt 0.0372 0.1747 0.0000
vt 0.0372 0.0946 0.0000
vt 0.6859 0.9816 0.0000
vt 0.8935 0.9883 0.0000
vt 0.0372 0.0053 0.0000
vt 0.0372 0.0854 0.0000
vt 0.8233 0.0097 0.0000
vt 0.8323 0.0069 0.0000
vt 0.8323 0.0838 0.0000
vt 0.8233 0.0810 0.0000
vt 0.8007 0.0125 0.0000
vt 0.8112 0.0118 0.0000
vt 0.8112 0.0789 0.0000
vt 0.8007 0.0782 0.0000
vt 0.0142 0.9913 0.0000
vt 0.1659 0.8085 0.0000
vt 0.0067 0.9823 0.0000
vt 0.1633 0.8063 0.0000
vt 0.0027 0.9702 0.0000
vt 0.1627 0.8016 0.0000
vt 0.0035 0.9597 0.0000
vt 0.1639 0.7966 0.0000
vt 0.2607 0.1962 0.0000
vt 0.2793 0.4542 0.0000
vt 0.2665 0.1888 0.0000
vt 0.2819 0.4514 0.0000
vt 0.2890 0.7796 0.0000
vt 0.2890 0.8961 0.0000
vt 0.5059 0.3702 0.0000
vt 0.3542 0.1874 0.0000
vt 0.5033 0.3724 0.0000
vt 0.3467 0.1964 0.0000
vt 0.5027 0.3770 0.0000
vt 0.3427 0.2085 0.0000
vt 0.5039 0.3821 0.0000
vt 0.3435 0.2190 0.0000
vt 0.6193 0.7244 0.0000
vt 0.6007 0.9825 0.0000
vt 0.6219 0.7273 0.0000
vt 0.6065 0.9899 0.0000
vt 0.6290 0.2826 0.0000
vt 0.6290 0.3991 0.0000
vt 0.0074 0.0931 0.0000
vt 0.0074 0.1762 0.0000
# 140 texture coords

g Arrow2
usemtl Arrow2
s 1
f 9/4/1 20/5/2 21/6/3 10/7/4 
f 23/10/5 1/11/6 11/12/7 26/13/8 
f 11/12/9 1/11/10 2/14/11 12/15/12 
f 2/14/13 3/16/14 13/17/15 12/15/16 
f 3/16/17 4/18/18 14/21/19 13/17/20 
f 4/18/21 5/22/22 15/25/23 14/21/24 
f 5/22/25 6/26/26 16/28/27 15/25/28 
f 6/26/29 7/30/30 17/31/31 16/28/32 
f 7/30/33 8/32/34 18/33/35 17/31/36 
f 8/32/37 9/4/38 10/7/39 18/33/40 
f 19/34/41 22/35/42 21/6/43 20/5/44 
f 41/36/45 42/37/46 25/38/47 24/40/48 
f 25/38/49 28/42/50 27/44/51 24/40/52 
f 27/44/53 28/42/54 30/125/55 29/126/56 
f 29/126/57 30/125/58 32/127/59 31/128/60 
f 31/128/61 32/127/62 34/129/63 33/130/64 
f 33/130/65 34/129/66 36/131/67 35/132/68 
f 35/132/69 36/131/70 38/133/71 37/134/72 
f 37/134/73 38/133/74 40/135/75 39/136/76 
f 39/136/77 40/135/78 22/35/79 19/34/80 
f 42/37/81 22/35/82 40/135/83 25/38/84 
s 2
f 8/9/85 65/19/86 45/20/87 9/8/88 
f 8/9/89 7/101/90 63/102/91 65/19/92 
f 2/1/93 1/2/94 50/3/95 53/23/96 
f 4/103/97 3/104/98 55/105/99 57/106/100 
f 6/107/101 5/108/102 59/109/103 61/110/104 
f 33/90/105 80/91/106 78/92/107 31/89/108 
s 1
f 12/15/109 13/17/110 14/21/111 15/25/112 
f 12/15/113 15/25/114 16/28/115 11/12/116 
f 44/138/117 42/37/118 41/36/119 43/137/120 
s 2
f 49/27/121 50/3/122 1/2/123 23/24/124 
s 1
f 26/13/125 44/138/126 43/137/127 23/10/128 
f 26/13/129 10/7/130 21/6/131 44/138/132 
f 44/138/133 21/6/134 22/35/135 42/37/136 
f 26/13/137 11/12/138 18/33/139 10/7/140 
f 16/28/141 17/31/142 18/33/143 11/12/144 
f 40/135/145 38/133/146 36/131/147 25/38/148 
f 36/131/149 34/129/150 28/42/151 25/38/152 
f 32/127/153 30/125/154 28/42/155 34/129/156 
f 45/47/157 48/48/158 47/51/159 46/52/160 
f 49/54/161 52/56/162 51/57/163 50/58/164 
f 51/57/165 54/59/166 53/60/167 50/58/168 
f 53/60/169 54/59/170 56/61/171 55/62/172 
f 55/62/173 56/61/174 58/63/175 57/64/176 
f 57/64/177 58/63/178 60/66/179 59/68/180 
f 59/68/181 60/66/182 62/70/183 61/71/184 
f 61/71/185 62/70/186 64/73/187 63/75/188 
f 63/75/189 64/73/190 66/77/191 65/78/192 
f 65/78/193 66/77/194 48/48/195 45/47/196 
f 67/79/197 46/52/198 47/51/199 68/80/200 
f 69/81/201 72/82/202 71/83/203 70/84/204 
f 71/83/205 72/82/206 74/85/207 73/88/208 
f 74/85/209 76/111/210 75/112/211 73/88/212 
f 76/111/213 78/113/214 77/114/215 75/112/216 
f 78/113/217 80/115/218 79/116/219 77/114/220 
f 80/115/221 82/117/222 81/118/223 79/116/224 
f 82/117/225 84/119/226 83/120/227 81/118/228 
f 84/119/229 86/121/230 85/122/231 83/120/232 
f 86/121/233 67/79/234 68/80/235 85/122/236 
f 70/84/237 71/83/238 85/122/239 68/80/240 
s 2
f 20/45/241 9/8/242 45/20/243 46/39/244 
f 63/102/245 7/101/246 6/107/247 61/110/248 
f 55/29/249 3/41/250 2/1/251 53/23/252 
f 59/109/253 5/108/254 4/103/255 57/106/256 
f 67/46/257 19/65/258 20/140/259 46/139/260 
f 72/43/261 24/49/262 27/50/263 74/53/264 
f 74/53/265 27/50/266 29/55/267 76/69/268 
f 29/94/269 31/89/270 78/92/271 76/93/272 
f 80/91/273 33/90/274 35/95/275 82/96/276 
f 82/96/277 35/95/278 37/97/279 84/98/280 
f 84/98/281 37/97/282 39/86/283 86/67/284 
f 86/67/285 39/86/286 19/65/287 67/46/288 
s 1
f 54/59/289 60/66/290 58/63/291 56/61/292 
f 54/59/293 51/57/294 62/70/295 60/66/296 
f 88/123/297 87/124/298 69/81/299 70/84/300 
f 52/56/301 49/54/302 87/124/303 88/123/304 
f 52/56/305 88/123/306 47/51/307 48/48/308 
f 88/123/309 70/84/310 68/80/311 47/51/312 
f 52/56/313 48/48/314 66/77/315 51/57/316 
f 62/70/317 51/57/318 66/77/319 64/73/320 
f 85/122/321 71/83/322 81/118/323 83/120/324 
f 81/118/325 71/83/326 73/88/327 79/116/328 
f 77/114/329 79/116/330 73/88/331 75/112/332 
s 2
f 41/74/333 69/76/334 87/87/335 43/72/336 
f 43/72/337 87/87/338 49/27/339 23/24/340 
f 41/99/341 24/49/342 72/43/343 69/100/344 
# 86 polygons

